<svg width="145" height="38" viewBox="0 0 145 38" fill="none" xmlns="http://www.w3.org/2000/svg">
<g filter="url(#filter0_dd_42_15930)">
<g clip-path="url(#clip0_42_15930)">
<rect x="3" y="2" width="32" height="32" rx="8" fill="white"/>
<rect x="3" y="2" width="32" height="32" rx="8" fill="url(#paint0_linear_42_15930)"/>
<path fill-rule="evenodd" clip-rule="evenodd" d="M18.9998 4.03861C11.2892 4.03861 5.03861 10.2892 5.03861 17.9998C5.03861 25.7103 11.2892 31.9609 18.9998 31.9609C26.7103 31.9609 32.9609 25.7103 32.9609 17.9998C32.9609 10.2892 26.7103 4.03861 18.9998 4.03861ZM4.96094 17.9998C4.96094 10.2463 11.2463 3.96094 18.9998 3.96094C26.7532 3.96094 33.0386 10.2463 33.0386 17.9998C33.0386 25.7532 26.7532 32.0386 18.9998 32.0386C11.2463 32.0386 4.96094 25.7532 4.96094 17.9998Z" fill="#D0D5DD"/>
<path fill-rule="evenodd" clip-rule="evenodd" d="M19 14.0777C16.8338 14.0777 15.0777 15.8338 15.0777 18C15.0777 20.1662 16.8338 21.9223 19 21.9223C21.1662 21.9223 22.9223 20.1662 22.9223 18C22.9223 15.8338 21.1662 14.0777 19 14.0777ZM15 18C15 15.7909 16.7909 14 19 14C21.2091 14 23 15.7909 23 18C23 20.2091 21.2091 22 19 22C16.7909 22 15 20.2091 15 18Z" fill="#D0D5DD"/>
<path fill-rule="evenodd" clip-rule="evenodd" d="M19.0004 15.3199C17.5205 15.3199 16.3208 16.5196 16.3208 17.9995C16.3208 19.4794 17.5205 20.6791 19.0004 20.6791C20.4804 20.6791 21.6801 19.4794 21.6801 17.9995C21.6801 16.5196 20.4804 15.3199 19.0004 15.3199ZM16.2432 17.9995C16.2432 16.4767 17.4776 15.2422 19.0004 15.2422C20.5233 15.2422 21.7577 16.4767 21.7577 17.9995C21.7577 19.5223 20.5233 20.7568 19.0004 20.7568C17.4776 20.7568 16.2432 19.5223 16.2432 17.9995Z" fill="#D0D5DD"/>
<path d="M18.9609 2H19.0386V34H18.9609V2Z" fill="#D0D5DD"/>
<path d="M35 17.9609L35 18.0386L3 18.0386L3 17.9609L35 17.9609Z" fill="#D0D5DD"/>
<path d="M29.6016 2H29.6792V34H29.6016V2Z" fill="#D0D5DD"/>
<path d="M13.6406 2H13.7183V34H13.6406V2Z" fill="#D0D5DD"/>
<path d="M24.2812 2H24.3589V34H24.2812V2Z" fill="#D0D5DD"/>
<path d="M8.32031 2H8.39798V34H8.32031V2Z" fill="#D0D5DD"/>
<path d="M35 28.6016L35 28.6792L3 28.6792L3 28.6016L35 28.6016Z" fill="#D0D5DD"/>
<path d="M35 12.6406L35 12.7183L3 12.7183L3 12.6406L35 12.6406Z" fill="#D0D5DD"/>
<path d="M35 23.2812L35 23.3589L3 23.3589L3 23.2812L35 23.2812Z" fill="#D0D5DD"/>
<path d="M35 7.32031L35 7.39798L3 7.39798L3 7.32031L35 7.32031Z" fill="#D0D5DD"/>
<g filter="url(#filter1_dd_42_15930)">
<circle cx="19" cy="18" r="8" fill="#004EEB"/>
</g>
<g filter="url(#filter2_b_42_15930)">
<path d="M3 18H35V21.2C35 25.6804 35 27.9206 34.1281 29.6319C33.3611 31.1372 32.1372 32.3611 30.6319 33.1281C28.9206 34 26.6804 34 22.2 34H15.8C11.3196 34 9.07937 34 7.36808 33.1281C5.86278 32.3611 4.63893 31.1372 3.87195 29.6319C3 27.9206 3 25.6804 3 21.2V18Z" fill="white" fill-opacity="0.2"/>
</g>
</g>
<rect x="3.1" y="2.1" width="31.8" height="31.8" rx="7.9" stroke="#D0D5DD" stroke-width="0.2"/>
</g>
<path d="M46.7216 9.54545H50.5909L55.7727 22.1932H55.9773L61.1591 9.54545H65.0284V27H61.9943V15.0085H61.8324L57.0085 26.9489H54.7415L49.9176 14.983H49.7557V27H46.7216V9.54545ZM68.3352 27V13.9091H71.4205V27H68.3352ZM69.8864 12.0511C69.3977 12.0511 68.9773 11.8892 68.625 11.5653C68.2727 11.2358 68.0966 10.8409 68.0966 10.3807C68.0966 9.91477 68.2727 9.51989 68.625 9.19602C68.9773 8.86648 69.3977 8.7017 69.8864 8.7017C70.3807 8.7017 70.8011 8.86648 71.1477 9.19602C71.5 9.51989 71.6761 9.91477 71.6761 10.3807C71.6761 10.8409 71.5 11.2358 71.1477 11.5653C70.8011 11.8892 70.3807 12.0511 69.8864 12.0511ZM74.593 27V13.9091H77.5845V16.0909H77.7209C77.9595 15.3352 78.3686 14.7528 78.9482 14.3438C79.5334 13.929 80.201 13.7216 80.951 13.7216C81.1214 13.7216 81.3118 13.7301 81.522 13.7472C81.7379 13.7585 81.9169 13.7784 82.0589 13.8068V16.6449C81.9283 16.5994 81.7209 16.5597 81.4368 16.5256C81.1584 16.4858 80.8885 16.4659 80.6271 16.4659C80.0646 16.4659 79.5589 16.5881 79.1101 16.8324C78.6669 17.071 78.3175 17.4034 78.0618 17.8295C77.8061 18.2557 77.6783 18.7472 77.6783 19.304V27H74.593ZM82.1186 12.196V9.54545H96.0447V12.196H90.6499V27H87.5135V12.196H82.1186ZM102.49 27.2557C101.178 27.2557 100.044 26.983 99.0895 26.4375C98.1406 25.8864 97.4105 25.108 96.8991 24.1023C96.3878 23.0909 96.1321 21.9006 96.1321 20.5312C96.1321 19.1847 96.3878 18.0028 96.8991 16.9858C97.4162 15.9631 98.1378 15.1676 99.0639 14.5994C99.9901 14.0256 101.078 13.7386 102.328 13.7386C103.135 13.7386 103.896 13.8693 104.612 14.1307C105.334 14.3864 105.97 14.7841 106.521 15.3239C107.078 15.8636 107.516 16.5511 107.834 17.3864C108.152 18.2159 108.311 19.2045 108.311 20.3523V21.2983H97.581V19.2188H105.354C105.348 18.6278 105.22 18.1023 104.97 17.642C104.72 17.1761 104.371 16.8097 103.922 16.5426C103.479 16.2756 102.962 16.142 102.371 16.142C101.74 16.142 101.186 16.2955 100.709 16.6023C100.232 16.9034 99.8594 17.3011 99.5923 17.7955C99.331 18.2841 99.1974 18.821 99.1918 19.4062V21.2216C99.1918 21.983 99.331 22.6364 99.6094 23.1818C99.8878 23.7216 100.277 24.1364 100.777 24.4261C101.277 24.7102 101.862 24.8523 102.533 24.8523C102.982 24.8523 103.388 24.7898 103.751 24.6648C104.115 24.5341 104.43 24.3438 104.697 24.0938C104.964 23.8438 105.166 23.5341 105.303 23.1648L108.183 23.4886C108.001 24.25 107.655 24.9148 107.143 25.483C106.638 26.0455 105.99 26.483 105.2 26.7955C104.411 27.1023 103.507 27.2557 102.49 27.2557ZM113.163 13.9091L115.805 18.7415L118.489 13.9091H121.754L117.808 20.4545L121.822 27H118.575L115.805 22.2869L113.06 27H109.788L113.776 20.4545L109.89 13.9091H113.163ZM130.677 13.9091V16.2955H123.151V13.9091H130.677ZM125.009 10.7727H128.094V23.0625C128.094 23.4773 128.157 23.7955 128.282 24.017C128.413 24.233 128.583 24.3807 128.793 24.4602C129.004 24.5398 129.237 24.5795 129.492 24.5795C129.685 24.5795 129.862 24.5653 130.021 24.5369C130.185 24.5085 130.31 24.483 130.396 24.4602L130.915 26.8722C130.751 26.929 130.515 26.9915 130.208 27.0597C129.907 27.1278 129.538 27.1676 129.1 27.179C128.327 27.2017 127.631 27.0852 127.012 26.8295C126.393 26.5682 125.901 26.1648 125.538 25.6193C125.18 25.0739 125.004 24.392 125.009 23.5739V10.7727Z" fill="black"/>
<defs>
<filter id="filter0_dd_42_15930" x="0" y="0" width="38" height="38" filterUnits="userSpaceOnUse" color-interpolation-filters="sRGB">
<feFlood flood-opacity="0" result="BackgroundImageFix"/>
<feColorMatrix in="SourceAlpha" type="matrix" values="0 0 0 0 0 0 0 0 0 0 0 0 0 0 0 0 0 0 127 0" result="hardAlpha"/>
<feOffset dy="1"/>
<feGaussianBlur stdDeviation="1"/>
<feColorMatrix type="matrix" values="0 0 0 0 0.0627451 0 0 0 0 0.0941176 0 0 0 0 0.156863 0 0 0 0.06 0"/>
<feBlend mode="normal" in2="BackgroundImageFix" result="effect1_dropShadow_42_15930"/>
<feColorMatrix in="SourceAlpha" type="matrix" values="0 0 0 0 0 0 0 0 0 0 0 0 0 0 0 0 0 0 127 0" result="hardAlpha"/>
<feOffset dy="1"/>
<feGaussianBlur stdDeviation="1.5"/>
<feColorMatrix type="matrix" values="0 0 0 0 0.0627451 0 0 0 0 0.0941176 0 0 0 0 0.156863 0 0 0 0.1 0"/>
<feBlend mode="normal" in2="effect1_dropShadow_42_15930" result="effect2_dropShadow_42_15930"/>
<feBlend mode="normal" in="SourceGraphic" in2="effect2_dropShadow_42_15930" result="shape"/>
</filter>
<filter id="filter1_dd_42_15930" x="8" y="8" width="22" height="22" filterUnits="userSpaceOnUse" color-interpolation-filters="sRGB">
<feFlood flood-opacity="0" result="BackgroundImageFix"/>
<feColorMatrix in="SourceAlpha" type="matrix" values="0 0 0 0 0 0 0 0 0 0 0 0 0 0 0 0 0 0 127 0" result="hardAlpha"/>
<feOffset dy="1"/>
<feGaussianBlur stdDeviation="1"/>
<feColorMatrix type="matrix" values="0 0 0 0 0.0627451 0 0 0 0 0.0941176 0 0 0 0 0.156863 0 0 0 0.06 0"/>
<feBlend mode="normal" in2="BackgroundImageFix" result="effect1_dropShadow_42_15930"/>
<feColorMatrix in="SourceAlpha" type="matrix" values="0 0 0 0 0 0 0 0 0 0 0 0 0 0 0 0 0 0 127 0" result="hardAlpha"/>
<feOffset dy="1"/>
<feGaussianBlur stdDeviation="1.5"/>
<feColorMatrix type="matrix" values="0 0 0 0 0.0627451 0 0 0 0 0.0941176 0 0 0 0 0.156863 0 0 0 0.1 0"/>
<feBlend mode="normal" in2="effect1_dropShadow_42_15930" result="effect2_dropShadow_42_15930"/>
<feBlend mode="normal" in="SourceGraphic" in2="effect2_dropShadow_42_15930" result="shape"/>
</filter>
<filter id="filter2_b_42_15930" x="-2" y="13" width="42" height="26" filterUnits="userSpaceOnUse" color-interpolation-filters="sRGB">
<feFlood flood-opacity="0" result="BackgroundImageFix"/>
<feGaussianBlur in="BackgroundImageFix" stdDeviation="2.5"/>
<feComposite in2="SourceAlpha" operator="in" result="effect1_backgroundBlur_42_15930"/>
<feBlend mode="normal" in="SourceGraphic" in2="effect1_backgroundBlur_42_15930" result="shape"/>
</filter>
<linearGradient id="paint0_linear_42_15930" x1="19" y1="2" x2="19" y2="34" gradientUnits="userSpaceOnUse">
<stop stop-color="white"/>
<stop offset="1" stop-color="#D0D5DD"/>
</linearGradient>
<clipPath id="clip0_42_15930">
<rect x="3" y="2" width="32" height="32" rx="8" fill="white"/>
</clipPath>
</defs>
</svg>
